<svg width="1440" height="661" viewBox="0 0 1440 661" fill="none"
  xmlns="http://www.w3.org/2000/svg">
  <path d="M520.806 407.577H376.057C391.182 417.521 406.855 427.647 420.298 437.983L520.806 438.025V407.577Z" fill="#FFF3D1"/>
  <path d="M701.532 572.5H748.95C751.844 572.5 754.191 570.149 754.191 567.25C754.191 564.351 751.844 562 748.95 562H701.532C698.638 562 696.291 564.351 696.291 567.25C696.291 570.149 698.638 572.5 701.532 572.5Z" fill="white"/>
  <path d="M680.069 534H773.906C776.801 534 779.147 536.351 779.147 539.25C779.147 542.149 776.801 544.5 773.906 544.5H680.069C677.175 544.5 674.828 542.149 674.828 539.25C674.828 536.351 677.175 534 680.069 534Z" fill="white"/>
  <path fill-rule="evenodd" clip-rule="evenodd" d="M875.259 510.651L883.5 505.5C883.264 505.638 875.259 510.651 875.259 510.651Z" fill="white"/>
  <path d="M538.5 407.577V438.025H867.5V407.577H538.5Z" fill="#FFF3D1"/>
  <path d="M867.5 438.025H538.5V469.5L547.759 469.543H867.5V438.025Z" fill="url(#paint0_linear_532_21)"/>
  <path d="M520.806 438.025L420.298 437.983C445.053 447.93 469.441 458.431 493.24 469.5L519.856 469.543H520.806V438.025Z" fill="url(#paint1_linear_532_21)"/>
  <path d="M867.5 480.5V505.5H883H883.5L883.862 480.5H867.5Z" fill="#00002B"/>
  <path d="M883.862 438.025V469.5V469.543L952.346 469.5C974.562 458.537 997.276 448.183 1020.35 438.417L1021.01 438.138L1021.4 437.973L883.862 438.025Z" fill="url(#paint2_linear_532_21)"/>
  <path d="M883.862 407.577V438.025L1021.4 437.973C1033.33 432.933 1044.06 428.229 1056.17 423.5C1057.28 418.28 1058.29 412.844 1059.17 407.541L883.862 407.577Z" fill="#FFF3D1"/>
  <path d="M715.757 0C522.793 0 370.231 186.817 370.231 380.117C431 354.343 489.5 307.5 520.806 252.977C520.806 252.977 523 249.5 530 249.5C537 249.5 538.5 252.977 538.5 252.977C538.5 252.977 608.111 344.02 702.49 340.52C796.87 337.02 867.5 252.977 867.5 252.977C867.5 252.977 871 250.5 876 250.5C881 250.5 883.862 252.977 883.862 252.977C938 329.5 969.459 343.779 1064 374C1064.15 369.825 1065.15 354.211 1065.15 350C1065.15 156.7 908.722 0 715.757 0Z" fill="#FFF3D1"/>
  <path d="M867.5 505.5V480.5H538.5V491.5L564.607 505.5L867.5 505.5Z" fill="#B5DAFA"/>
  <path fill-rule="evenodd" clip-rule="evenodd" d="M855.724 523L867.5 515.5H582.489L575.464 511.59L582.433 515.5C630.757 543.241 674.823 573.851 712.263 607.5L713.472 608.683L731.23 611.5L741.101 609.951L743.709 607.5C777.907 576.482 814.758 548.704 855.724 523ZM748.95 572.5H701.532C698.638 572.5 696.291 570.149 696.291 567.25C696.291 564.351 698.638 562 701.532 562H748.95C751.844 562 754.191 564.351 754.191 567.25C754.191 570.149 751.844 572.5 748.95 572.5ZM773.906 534H680.069C677.175 534 674.828 536.351 674.828 539.25C674.828 542.149 677.175 544.5 680.069 544.5H773.906C776.801 544.5 779.147 542.149 779.147 539.25C779.147 536.351 776.801 534 773.906 534Z" fill="url(#paint3_linear_532_21)"/>
  <path d="M520.806 482.5V480.5H516.304C518.239 481.446 518.881 481.546 520.806 482.5Z" fill="#B5DAFA"/>
  <path d="M883.862 480.5L883.5 505.5C897.864 497.14 914.176 489.074 929.093 481.295L929.843 480.904C930.102 480.77 930.362 480.635 930.621 480.5L883.862 480.5Z" fill="#B5DAFA"/>
  <path d="M33.7905 410.5C28.6422 410.5 25.2614 405.112 27.4935 400.465L60.6169 331.5H43.3838C39.8106 331.5 37.0547 328.887 36.4937 325.703C24.085 323.162 11.9084 320.761 0 318.5V495.605L31.1353 500.431L44.8832 477.5H24.9239C19.607 477.5 16.2379 471.788 18.8031 467.123L49.9372 410.5H33.7905Z" fill="url(#paint4_linear_532_21)"/>
  <path d="M564.52 505.5L564.607 505.5L538.5 491.5C529.628 486.818 529.898 487.006 520.806 482.5C518.881 481.546 518.239 481.446 516.304 480.5L493.24 469.5C469.441 458.431 445.053 447.93 420.298 437.983C410.992 434.243 401.634 430.582 392.236 426.998C385.953 424.602 379.651 422.241 373.336 419.913C287.205 388.177 198.372 362.82 115.71 343.207L143.21 400.465C145.442 405.112 142.062 410.5 136.913 410.5H119.768L150.902 467.123C153.468 471.788 150.098 477.5 144.782 477.5H125.821L150.966 519.442L182 524.365L193.669 501.75H185.185C183.053 501.75 181.603 499.581 182.416 497.606L195.119 466.75H190.357C188.228 466.75 186.779 464.589 187.584 462.615L210.358 406.795C211.372 404.308 214.888 404.308 215.902 406.795L238.676 462.615C239.481 464.589 238.032 466.75 235.903 466.75H231.141L243.844 497.606C244.657 499.581 243.208 501.75 241.075 501.75H231.593L248.723 534.951L295.839 542.426L303.024 528.5H295.782C293.505 528.5 292.061 526.055 293.157 524.056L309.36 494.5H301.263C298.921 494.5 297.485 491.928 298.712 489.929L313.086 466.5H307.628C305.428 466.5 303.979 464.203 304.923 462.213L322.231 425.706C323.314 423.422 326.558 423.422 327.641 425.706L344.949 462.213C345.893 464.203 344.443 466.5 342.244 466.5H335.787L350.162 489.929C351.388 491.928 349.952 494.5 347.61 494.5H339.513L355.717 524.056C356.813 526.055 355.369 528.5 353.092 528.5H345.85L358.134 552.309L440.305 565.345L713.472 608.683L712.263 607.5C674.823 573.851 630.757 543.241 582.433 515.5L575.464 511.59L564.52 505.5Z" fill="url(#paint5_linear_532_21)"/>
  <path d="M36.899 321.892L60.5122 262.976C39.4037 256.671 19.096 251.306 0 247V318.5C11.9084 320.761 24.085 323.162 36.4937 325.703C36.278 324.479 36.387 323.169 36.899 321.892Z" fill="url(#paint6_linear_532_21)"/>
  <path d="M420.298 437.983C406.855 427.647 391.182 417.521 376.057 407.577C373.74 406.053 371.405 404.535 369.053 403.022C365.008 400.42 360.415 397.382 355.579 394.185C355.573 394.181 355.566 394.176 355.56 394.172C355.557 394.17 355.555 394.169 355.553 394.168C355.551 394.166 355.549 394.165 355.547 394.163C355.542 394.16 355.537 394.157 355.532 394.153C354.339 393.364 353.392 392.755 352.425 392.132C351.537 391.561 350.631 390.978 349.5 390.233C280.76 345 188.047 306.605 117.687 281.678L133.805 321.892C135.648 326.491 132.268 331.5 127.32 331.5H110.087L115.71 343.207C198.372 362.82 287.205 388.177 373.336 419.913C379.651 422.241 385.953 424.602 392.236 426.998C401.634 430.582 410.992 434.243 420.298 437.983Z" fill="url(#paint7_linear_532_21)"/>
  <path d="M520.701 390.233H502.5V296.5L520.806 272.5L520.701 390.233Z" fill="#FFF3D1"/>
  <path d="M495.744 390.233H474.5V324L495.744 303.5V390.233Z" fill="#FFF3D1"/>
  <path d="M447.5 390.233H467.793V330.5L447.5 347V390.233Z" fill="#FFF3D1"/>
  <path d="M440.84 390.233H422.5V364L440.84 352V390.233Z" fill="#FFF3D1"/>
  <path d="M392.5 390.233H371.5L392.5 380V390.233Z" fill="#FFF3D1"/>
  <path d="M416 390.233H398.413V377.5L416 367.5V390.233Z" fill="#FFF3D1"/>
  <path d="M705 349.5V390.233H733.762V345.5C705 349.5 733.762 345.5 705 349.5Z" fill="#FFF3D1"/>
  <path d="M740 343.5V390.233H770.5V334.5C740 343.5 770.5 334.5 740 343.5Z" fill="#FFF3D1"/>
  <path d="M883.758 390.233L883.862 270L904.5 297.5V390.233H883.758Z" fill="#FFF3D1"/>
  <path d="M913 390.233H936.5V327L913 305V390.233Z" fill="#FFF3D1"/>
  <path d="M944.465 390.233H965V347L944.465 333.5V390.233Z" fill="#FFF3D1"/>
  <path d="M971.918 390.233H992.5V359.5L971.918 350V390.233Z" fill="#FFF3D1"/>
  <path d="M998.871 390.233H1021.4L1021.01 370L998.871 361.5V390.233Z" fill="#FFF3D1"/>
  <path d="M1027.32 390.233L1051 390.191V380.5L1027.32 372V390.233Z" fill="#FFF3D1"/>
  <path d="M1056.77 383.004V390.233L1062.55 390.191L1063 384.689L1056.77 383.004Z" fill="#FFF3D1"/>
  <path d="M930.621 480.5C937.777 476.782 944.992 473.13 952.259 469.543L952.346 469.5L883.862 469.543H867.5H547.759H519.856L493.24 469.5L516.304 480.5H520.806H538.5H867.5H883.862L930.621 480.5Z" fill="white"/>
  <path d="M582.489 515.5H867.5L875.259 510.651C875.259 510.651 883.264 505.638 883.5 505.5H883H867.5L564.607 505.5L575.464 511.59L582.489 515.5Z" fill="white"/>
  <path d="M1332.06 502.5C1330.9 504.5 1332.34 507 1334.65 507H1343.37L1337.63 516.336L1293.32 523.29L1284.06 505H1295.63C1297.96 505 1299.4 502.46 1298.2 500.46L1278.53 467.5H1287.81C1289.96 467.5 1291.41 465.308 1290.57 463.33L1266.56 406.525C1265.53 404.084 1262.08 404.084 1261.05 406.525L1237.04 463.33C1236.2 465.308 1237.65 467.5 1239.8 467.5H1248.08L1228.41 500.46C1227.22 502.46 1228.65 505 1230.98 505H1243.55L1229.2 533.353L1180.8 540.948L1172.57 525H1179.78C1182.12 525 1183.55 522.434 1182.33 520.435L1167.12 495.5H1174.66C1176.98 495.5 1178.42 492.961 1177.23 490.962L1162.64 466.5H1170.66C1172.9 466.5 1174.35 464.138 1173.33 462.142L1156.17 428.269C1155.06 426.08 1151.94 426.08 1150.83 428.269L1133.66 462.142C1132.65 464.138 1134.1 466.5 1136.33 466.5H1145.35L1130.77 490.962C1129.57 492.961 1131.01 495.5 1133.34 495.5H1140.88L1125.66 520.435C1124.44 522.434 1125.88 525 1128.21 525H1135.42L1122.47 550.102L986.322 571.468L741.101 609.951L731.23 611.5L713.472 608.683L440.305 565.345L358.134 552.309L345.85 528.5H353.092C355.369 528.5 356.813 526.055 355.717 524.056L339.513 494.5H347.61C349.952 494.5 351.388 491.928 350.162 489.929L335.787 466.5H342.244C344.443 466.5 345.893 464.203 344.949 462.213L327.641 425.706C326.558 423.422 323.314 423.422 322.231 425.706L304.923 462.213C303.979 464.203 305.428 466.5 307.628 466.5H313.086L298.712 489.929C297.485 491.928 298.921 494.5 301.263 494.5H309.36L293.157 524.056C292.061 526.055 293.505 528.5 295.782 528.5H303.024L295.839 542.426L248.723 534.951L231.593 501.75H241.075C243.208 501.75 244.657 499.581 243.844 497.606L231.141 466.75H235.903C238.032 466.75 239.481 464.589 238.676 462.615L215.902 406.795C214.888 404.308 211.372 404.308 210.358 406.795L187.584 462.615C186.779 464.589 188.228 466.75 190.357 466.75H195.119L182.416 497.606C181.603 499.581 183.053 501.75 185.185 501.75H193.669L182 524.365L150.966 519.442L125.821 477.5H144.782C150.098 477.5 153.468 471.788 150.902 467.123L119.768 410.5H136.913C142.062 410.5 145.442 405.112 143.21 400.465L115.71 343.207L110.087 331.5H127.32C132.268 331.5 135.648 326.491 133.805 321.892L117.687 281.678L91.8366 217.18C89.4896 211.324 81.2142 211.324 78.8671 217.18L60.5122 262.976L36.899 321.892C36.387 323.169 36.278 324.479 36.4937 325.703C37.0547 328.887 39.8106 331.5 43.3838 331.5H60.6169L27.4935 400.465C25.2614 405.112 28.6422 410.5 33.7905 410.5H49.9372L18.8031 467.123C16.2379 471.788 19.607 477.5 24.9239 477.5H44.8832L31.1353 500.431L0 495.605V661H1440V500.271L1427.04 502.304L1402.51 459.75H1415.13C1417.42 459.75 1418.86 457.285 1417.74 455.285L1396.08 416.5H1403.24C1405.46 416.5 1406.91 414.161 1405.92 412.167L1381.79 363.419C1380.69 361.197 1377.52 361.197 1376.42 363.419L1352.29 412.167C1351.3 414.161 1352.75 416.5 1354.97 416.5H1363.13L1341.47 455.285C1340.35 457.285 1341.79 459.75 1344.08 459.75H1356.69L1332.06 502.5Z" fill="#00002B"/>
  <path d="M867.5 515.5L855.724 523C814.758 548.704 777.907 576.482 743.709 607.5L741.101 609.951L986.322 571.468L1122.47 550.102L1135.42 525H1128.21C1125.88 525 1124.44 522.434 1125.66 520.435L1140.88 495.5H1133.34C1131.01 495.5 1129.57 492.961 1130.77 490.962L1145.35 466.5H1136.33C1134.1 466.5 1132.65 464.138 1133.66 462.142L1150.83 428.269C1151.94 426.08 1155.06 426.08 1156.17 428.269L1173.33 462.142C1174.35 464.138 1172.9 466.5 1170.66 466.5H1162.64L1177.23 490.962C1178.42 492.961 1176.98 495.5 1174.66 495.5H1167.12L1182.33 520.435C1183.55 522.434 1182.12 525 1179.78 525H1172.57L1180.8 540.948L1229.2 533.353L1243.55 505H1230.98C1228.65 505 1227.22 502.46 1228.41 500.46L1248.08 467.5H1239.8C1237.65 467.5 1236.2 465.308 1237.04 463.33L1261.05 406.525C1262.08 404.084 1265.53 404.084 1266.56 406.525L1290.57 463.33C1291.41 465.308 1289.96 467.5 1287.81 467.5H1278.53L1298.2 500.46C1299.4 502.46 1297.96 505 1295.63 505H1284.06L1293.32 523.29L1337.63 516.336L1343.37 507H1334.65C1332.34 507 1330.9 504.5 1332.06 502.5L1356.69 459.75H1344.08C1341.79 459.75 1340.35 457.285 1341.47 455.285L1363.13 416.5H1354.97C1352.75 416.5 1351.3 414.161 1352.29 412.167L1376.42 363.419C1377.52 361.197 1380.69 361.197 1381.79 363.419L1405.92 412.167C1406.91 414.161 1405.46 416.5 1403.24 416.5H1396.08L1417.74 455.285C1418.86 457.285 1417.42 459.75 1415.13 459.75H1402.51L1427.04 502.304L1440 500.271V322.327C1326.98 340.064 1202.27 369.545 1083.5 413.432L1056.17 423.5C1044.06 428.229 1033.33 432.933 1021.4 437.973L1021.01 438.138L1020.35 438.417C997.276 448.183 974.562 458.537 952.346 469.5L930.884 480.5L930.621 480.5C930.362 480.635 930.102 480.77 929.843 480.904L929.093 481.295C914.176 489.074 897.864 497.14 883.5 505.5L867.5 515.5Z" fill="url(#paint8_linear_532_21)"/>
  <path d="M1116.56 390.934C1108.35 396.269 1100.13 401.799 1091.88 407.534C1089.09 409.477 1086.3 411.442 1083.5 413.432C1202.27 369.545 1326.98 340.064 1440 322.327V253.813C1332.69 283.075 1226.21 319.662 1116.56 390.934Z" fill="url(#paint9_linear_532_21)"/>
  <path fill-rule="evenodd" clip-rule="evenodd" d="M556.5 287.5C538.5 269 556.5 287.5 538.5 269L556.5 287.5Z" fill="#00002B"/>
  <path d="M867.395 390.233L867.5 270L840.5 293V390.233H867.395Z" fill="#FFF3D1"/>
  <path d="M810 314V390.233H834V297.5L810 314Z" fill="#FFF3D1"/>
  <path d="M538.5 491.5V480.5H520.806V482.5C529.898 487.006 529.628 486.818 538.5 491.5Z" fill="#00002B"/>
  <path d="M613.5 328.5L614 390.233H637.5V339.5L613.5 328.5Z" fill="#FFF3D1"/>
  <path d="M538.5 390.233H556.5V287.5L538.5 269V390.233Z" fill="#FFF3D1"/>
  <path d="M587.086 313V390.233H607.5V325.5L587.086 313Z" fill="#FFF3D1"/>
  <path fill-rule="evenodd" clip-rule="evenodd" d="M867.395 390.233L867.5 270L840.5 293V390.233H867.395ZM673.436 348L699.5 350V390.233H673.436V348ZM705 390.233V349.5L733.762 345.5V390.233H705ZM740 390.233V343.5L770.5 334.5V390.233H740ZM810 314V390.233H834V297.5L810 314Z" fill="#FFF3D1"/>
  <path fill-rule="evenodd" clip-rule="evenodd" d="M944.465 390.233H965V347L944.465 333.5V390.233ZM883.758 390.233L883.862 270L904.5 297.5V390.233H883.758ZM913 390.233H936.5V327L913 305V390.233ZM971.918 390.233H992.5V359.5L971.918 350V390.233ZM998.871 390.233H1021.4L1021.01 370L998.871 361.5V390.233ZM1027.32 390.233L1051 390.191V380.5L1027.32 372V390.233ZM705 349.5V390.233H733.762V345.5L705 349.5ZM740 343.5L770.5 334.5V390.233H740V343.5ZM520.701 390.233H502.5V296.5L520.806 272.5L520.701 390.233ZM495.744 390.233H474.5V324L495.744 303.5V390.233ZM447.5 390.233H467.793V330.5L447.5 347V390.233ZM440.84 390.233H422.5V364L440.84 352V390.233ZM416 390.233H398.413V377.5L416 367.5V390.233ZM392.5 390.233H371.5L392.5 380V390.233Z" fill="#FFF3D1"/>
  <path d="M563 390.233H581V308.5L563 293.5V390.233Z" fill="#FFF3D1"/>
  <path d="M643.5 390.233H668V347.5L643.5 341V390.233Z" fill="#FFF3D1"/>
  <path fill-rule="evenodd" clip-rule="evenodd" d="M376.057 407.577H520.806V438.025V469.543L538.5 469.5V438.025V407.577H867.5V438.025V469.543L883.862 469.5V438.025V407.577L1059.17 407.541L1091.88 407.534C1100.13 401.799 1108.35 396.269 1116.56 390.934C1092.26 383.418 1092.03 383.31 1091.38 383.004C1090.72 382.699 1089.64 382.197 1064 374C969.459 343.779 938 329.5 883.862 252.977C883.862 252.977 881 250.5 876 250.5C871 250.5 867.5 252.977 867.5 252.977C867.5 252.977 796.87 337.02 702.49 340.52C608.111 344.02 538.5 252.977 538.5 252.977C538.5 252.977 537 249.5 530 249.5C523 249.5 520.806 252.977 520.806 252.977C489.5 307.5 431 354.343 370.231 380.117L349.5 390.233C350.631 390.978 351.537 391.561 352.425 392.132C353.392 392.755 354.339 393.364 355.532 394.153L355.547 394.163L355.553 394.168L355.56 394.172L355.579 394.185C360.415 397.382 365.008 400.42 369.053 403.022C371.405 404.535 373.74 406.053 376.057 407.577ZM965 390.233H944.465V333.5L965 347V390.233ZM883.862 270L883.758 390.233H904.5V297.5L883.862 270ZM936.5 390.233H913V305L936.5 327V390.233ZM992.5 390.233H971.918V350L992.5 359.5V390.233ZM1021.4 390.233H998.871V361.5L1021.01 370L1021.4 390.233ZM1051 390.191L1027.32 390.233V372L1051 380.5V390.191ZM1056.77 390.233V383.004L1083.5 390.233L1062.55 390.191L1056.77 390.233ZM556.5 390.233H538.5V269L556.5 287.5V390.233ZM867.5 270L867.395 390.233H840.5V293L867.5 270ZM587.086 390.233V313L607.5 325.5V390.233H587.086ZM614 390.233L613.5 328.5L637.5 339.5V390.233H614ZM699.5 350L673.436 348V390.233H699.5V350ZM705 349.5V390.233H733.762V345.5L705 349.5ZM740 343.5V390.233H770.5V334.5L740 343.5ZM810 390.233V314L834 297.5V390.233H810ZM502.5 390.233H520.701L520.806 272.5L502.5 296.5V390.233ZM474.5 390.233H495.744V303.5L474.5 324V390.233ZM467.793 390.233H447.5V347L467.793 330.5V390.233ZM422.5 390.233H440.84V352L422.5 364V390.233ZM398.413 390.233H416V367.5L398.413 377.5V390.233ZM371.5 390.233H392.5V380L371.5 390.233ZM581 390.233H563V293.5L581 308.5V390.233ZM643.5 390.233H668V347.5L643.5 341V390.233ZM777 390.233H803V318.5L777 331.5V390.233Z" fill="#00002B"/>
  <path d="M803 390.233H777V331.5L803 318.5V390.233Z" fill="#FFF3D1"/>
  <defs>
    <linearGradient id="paint0_linear_532_21" x1="694.404" y1="301.454" x2="694.404" y2="322.078" gradientUnits="userSpaceOnUse">
      <stop stop-color="#C3E2FD"/>
      <stop offset="1" stop-color="#B5DAFA"/>
    </linearGradient>
    <linearGradient id="paint1_linear_532_21" x1="491.534" y1="322.765" x2="494.574" y2="300.406" gradientUnits="userSpaceOnUse">
      <stop stop-color="#C3E2FD"/>
      <stop offset="1" stop-color="#B5DAFA"/>
    </linearGradient>
    <linearGradient id="paint2_linear_532_21" x1="904.385" y1="300.423" x2="911.306" y2="324.652" gradientUnits="userSpaceOnUse">
      <stop stop-color="#C3E2FD"/>
      <stop offset="1" stop-color="#B5DAFA"/>
    </linearGradient>
    <linearGradient id="paint3_linear_532_21" x1="719.75" y1="628.5" x2="719.157" y2="514.503" gradientUnits="userSpaceOnUse">
      <stop stop-color="#0757AE"/>
      <stop offset="1" stop-color="#B6DAF9"/>
    </linearGradient>
    <linearGradient id="paint4_linear_532_21" x1="43.6076" y1="256.769" x2="707.566" y2="120.843" gradientUnits="userSpaceOnUse">
      <stop stop-color="#03155A"/>
      <stop offset="1" stop-color="#023E8C"/>
    </linearGradient>
    <linearGradient id="paint5_linear_532_21" x1="441.368" y1="446.5" x2="256.072" y2="559.657" gradientUnits="userSpaceOnUse">
      <stop stop-color="#0E68C1"/>
      <stop offset="1" stop-color="#021459"/>
    </linearGradient>
    <linearGradient id="paint6_linear_532_21" x1="-5.62156e-06" y1="298" x2="59.927" y2="277.68" gradientUnits="userSpaceOnUse">
      <stop stop-color="#2E9AFF"/>
      <stop offset="1" stop-color="#2495FF"/>
    </linearGradient>
    <linearGradient id="paint7_linear_532_21" x1="139.529" y1="331" x2="281.952" y2="328.217" gradientUnits="userSpaceOnUse">
      <stop stop-color="#2394FE"/>
      <stop offset="1" stop-color="#80C6FF"/>
    </linearGradient>
    <linearGradient id="paint8_linear_532_21" x1="897.706" y1="495.5" x2="1241.29" y2="692.987" gradientUnits="userSpaceOnUse">
      <stop stop-color="#0F67C0"/>
      <stop offset="1" stop-color="#03155A"/>
    </linearGradient>
    <linearGradient id="paint9_linear_532_21" x1="1162.42" y1="363" x2="1387.09" y2="332.083" gradientUnits="userSpaceOnUse">
      <stop stop-color="#81C7FF"/>
      <stop offset="1" stop-color="#2495FF"/>
    </linearGradient>
  </defs>
</svg>
